<svg
   xmlns="http://www.w3.org/2000/svg"
   xmlns:xlink="http://www.w3.org/1999/xlink"
   version="1.1"
   id="layer"
   x="0px"
   y="0px"
   viewBox="0 0 652 652"
   style="enable-background: new 0 0 652 652"
   xml:space="preserve"
>
   <style type="text/css">
      .st0 {
         fill: #0054a6;
      }
      .st1 {
         fill: #ffe735;
      }
   </style>
   <path
      class="st0"
      d="M102,348.7c30.1,0,52.5-11.7,67.4-23.4c8.1,11.6,22.1,19.5,37.2,19.5c15.8,0,28.1-3.2,38.7-7.6l-2.7,7.6l56.4,0  l15.7-10.5l-3.7,10.5h13.1h68.5l17.2-48.8c4,1.1,11.6,6,17,11.2l7.2,6.9l32.3-21.4c9.1,32.3,39.9,56.1,76.5,56.1  c43.7,0,79.2-34,79.2-75.9c0-41.8-35.5-75.9-79.2-75.9c-25.8,0-49.5,11.9-64.2,31.4l-13.1-12l-35.4,23.5l8.7-24.3h-68.4h-13.1h-68.4  l-15.3,42.7c-6.4,17.9-13.4,22.6-23.4,25.9c-1.5,0.5-3-0.9-2.5-2.5l23.8-66.2h-80.5l-13.4,37.4l-5-9.5  c-5.3-10.1-25.4-43.2-60.8-46.2c-3.2-0.3-6.3-0.4-9.3-0.4c-7.5,0-14.2,0.9-19.9,2.5c-9.9,2.9-18.2,6.7-25.5,11.5  c-9.8,6.4-17.2,14.1-24.1,24.8c-7.2,11.2-9.7,23.3-10.5,31.5c-3.1,32.9,16.4,52.7,22.8,59.2C50.3,331.7,69.6,348.7,102,348.7z   M168.5,259.8l8.7-6.1l-0.1,0.3c-10.7,29.7-36.7,45.2-56.9,45.2c-2.7,0-5.9-0.3-9.2-1.2L168.5,259.8z M601.5,362.2H61.7  c-7.6,0-14.3,4.7-16.8,11.8l-21.2,60.4c-1.8,5.2,2.1,10.6,7.6,10.6h539.8c7.6,0,14.3-4.7,16.8-11.8l21.2-60.4  C610.9,367.6,607.1,362.2,601.5,362.2z"
   />
   <g>
      <g>
         <path
            class="st1"
            d="M553.7,377.5c-23.1,0-29.5,9.1-31,15.5c-1.7,7.3,1.4,12.3,11.9,13.8l17,2.5c5.9,0.9,7.9,1.8,7.4,4.4    c-1,4.2-6,5.1-10.4,5.1c-9.2,0-10.8-2.3-10.4-6h-20.8c-2.1,13.6,10.2,16.5,28,16.5c7.2,0,30.5-0.1,34.3-16.7    c2-8.6-3.1-12.3-12.5-13.9c-5-0.8-18.1-2.7-22.4-3.3c-2.6-0.4-3.6-1.4-3.2-3c0.7-3.2,4.3-4.8,10.3-4.8c8.1,0,10.4,2.3,10.1,5.7h20    C583.4,381.8,572.9,377.5,553.7,377.5z M521.6,379h-53.9l-2.4,11h18.5l-8.3,38.2h16.8l8.3-38.2h18.5L521.6,379z M337.5,394.9    c2.1-9.1-1.3-16-15.3-16H284l-10.9,49.2h17.2l3.6-17.3h21.7C329.5,410.9,335.7,402.9,337.5,394.9z M319.7,394.9    c-1,4.2-3.5,6-8.2,6h-15.3l2.8-12.1h15.3C319,388.9,320.7,390.7,319.7,394.9z M235,379h-41.3l-11,49.2H200l3.7-16.4h15.7    c4.3,0,6.7,1.4,5,9.1c-0.5,2.3-1.1,5.2-0.6,7.3h18.8c-1.6-2.5-1.2-5.6,0.2-15.3c0.7-5.3-1.2-7.8-4.3-8.8l0-0.1    c4.9-1.1,9.3-4.7,10.7-11.2C251.1,384.5,247.7,379,235,379z M230.3,395.3c-0.8,3.4-3.5,5.5-7.6,5.5h-16.5l2.4-10.8H225    C229.2,390,231,392.1,230.3,395.3z M146.4,379L113,428.2h18.4l4.9-8h22.5l1.3,8h18.4L167.4,379C167.4,379,146.4,379,146.4,379z     M142.6,410l11.3-18.6h0.1l3,18.6H142.6z M98.8,409.1c-2.4,5.6-7.7,9.3-15.3,9.3c-10.9,0-12.5-6.8-10.7-14.8    c1.8-8,6.8-14.8,17.3-14.8c9.6,0,10.7,5.8,11,9.3h18.8c0-16.7-12-20.1-27.4-20.1c-22,0-33.9,9.5-37.5,25.6    c-3.7,16.6,4.7,25.6,26.1,25.6c23.9,0,32.1-9.7,36.5-20.1L98.8,409.1L98.8,409.1z M357.4,379l-33.3,49.2h18.4l4.9-8h22.5l1.3,8    h18.4L378.5,379H357.4z M353.7,410l11.3-18.6h0.1l3,18.6H353.7z M446,379h-41.3l-10.9,49.2h17.2l3.6-16.4h15.7    c4.3,0,6.7,1.4,5,9.1c-0.5,2.3-1.1,5.2-0.6,7.3h18.8c-1.6-2.5-1.2-5.6,0.2-15.3c0.8-5.3-1.2-7.8-4.2-8.8l0-0.1    c4.9-1.1,9.3-4.7,10.7-11.2C462,384.5,458.6,379,446,379z M441.2,395.3c-0.8,3.4-3.5,5.5-7.6,5.5H417l2.4-10.8h16.5    C440.1,390,441.9,392.1,441.2,395.3z M295.2,332.4l26.4-17.6l31.1-87h-55.2l-12.6,35.3c-8,19.5-20.6,31.1-37.1,34.3    c-9.1,1.8-16.6-6.9-13.5-15.6l19.4-54.1h-54.1l-10.8,30.2c-12.2,33.7-42.3,53.3-68.5,53.3c-11.7,0-22.6-3.9-30.9-12.1l-1-1.1    l73.3-48.7c-1-1.9-18.7-37.2-51-39.9c-7.7-0.6-17-0.6-24.6,1.7c-7.6,2.3-15.3,5.4-22.2,9.9c-9.3,6.1-15.4,13.2-20.5,21.2    c-5.2,8-7.7,17.5-8.6,26.1C32.3,293.3,45.2,309,54,317.9c6.2,6.2,22.7,18.6,48,18.6c35.4,0,59-17.9,72.4-32.7    c0.7,15.2,15.7,28.8,32.2,28.7c43.9-0.1,63.2-27.7,63.8-28.6l-10.2,28.6L295.2,332.4L295.2,332.4z M72.7,272.4    c-0.4-2.5-0.3-5.2,0.3-7.9c0.6-2.7,1.7-5.4,3.4-8c1.6-2.6,4-4.9,7-6.9c3.4-2.2,6.8-3.7,10-4.4c3.2-0.7,6.3-0.8,9.1-0.5    c2.8,0.3,5.3,1.1,7.4,2.2c2.1,1.1,3.8,2.4,5.2,3.8c0.1,0.1,0.3,0.3,0.6,0.6c0.3,0.3,0.4,0.6,0.4,0.8l-41.1,26.9    C73.8,277.2,73,274.9,72.7,272.4z M542.8,209.3c-27.5,0-51.1,15.8-61.4,38.4L464.3,232l-58.4,38.8l15.3-42.9H366l-37.4,104.5h55.2    l14.6-41.4c7.7-20.8,37.1,7.2,37.1,7.2l40.6-27c0,0.5,0,1,0,1.6c0,35.1,29.9,63.5,66.8,63.5c36.9,0,66.8-28.4,66.8-63.5    C609.6,237.8,579.7,209.3,542.8,209.3z M561.8,299.3l-19-13.7l-19,13.7l7.2-22.1l-19-13.7h23.5l7.3-22.1l7.3,22.1h23.5l-19,13.7    L561.8,299.3z"
         />
      </g>
   </g>
</svg>
